<svg xmlns="http://www.w3.org/2000/svg" viewBox="0 0 32 32" width="32" height="32">
  <g stroke="#B8893A" stroke-width="1.3" fill="#B8893A">
    <line x1="16" y1="5" x2="23.778" y2="23.778"/>
    <line x1="23.778" y1="8.222" x2="16" y2="27"/>
    <line x1="27" y1="16" x2="8.222" y2="23.778"/>
    <line x1="23.778" y1="23.778" x2="5" y2="16"/>
    <line x1="16" y1="27" x2="8.222" y2="8.222"/>
    <line x1="8.222" y1="23.778" x2="16" y2="5"/>
    <line x1="5" y1="16" x2="23.778" y2="8.222"/>
    <line x1="8.222" y1="8.222" x2="27" y2="16"/>
    <circle cx="16" cy="5" r="1.6" stroke="none"/>
    <circle cx="23.778" cy="8.222" r="1.6" stroke="none"/>
    <circle cx="27" cy="16" r="1.6" stroke="none"/>
    <circle cx="23.778" cy="23.778" r="1.6" stroke="none"/>
    <circle cx="16" cy="27" r="1.6" stroke="none"/>
    <circle cx="8.222" cy="23.778" r="1.6" stroke="none"/>
    <circle cx="5" cy="16" r="1.6" stroke="none"/>
    <circle cx="8.222" cy="8.222" r="1.6" stroke="none"/>
    <circle cx="16" cy="16" r="2" stroke="none"/>
  </g>
</svg>
